<?xml version="1.0" encoding="UTF-8"?>
<!--Generator: Apple Native CoreSVG 341-->
<!DOCTYPE svg
PUBLIC "-//W3C//DTD SVG 1.1//EN"
       "http://www.w3.org/Graphics/SVG/1.1/DTD/svg11.dtd">
<svg version="1.1" xmlns="http://www.w3.org/2000/svg" xmlns:xlink="http://www.w3.org/1999/xlink" viewBox="0 0 3300 2200">
 <!--glyph: "", point size: 100.0, font version: "21.1d1e1", template writer version: "138.0.0"-->
 <style>.SFSymbolsPreviewWireframe {fill:none;opacity:1.0;stroke:black;stroke-width:0.5}
</style>
 <g id="Notes">
  <rect height="2200" id="artboard" style="fill:white;opacity:1" width="3300" x="0" y="0"/>
  <line style="fill:none;stroke:black;opacity:1;stroke-width:0.5;" x1="263" x2="3036" y1="292" y2="292"/>
  <text style="stroke:none;fill:black;font-family:sans-serif;font-size:13;font-weight:bold;" transform="matrix(1 0 0 1 263 322)">Weight/Scale Variations</text>
  <text style="stroke:none;fill:black;font-family:sans-serif;font-size:13;text-anchor:middle;" transform="matrix(1 0 0 1 559.711 322)">Ultralight</text>
  <text style="stroke:none;fill:black;font-family:sans-serif;font-size:13;text-anchor:middle;" transform="matrix(1 0 0 1 856.422 322)">Thin</text>
  <text style="stroke:none;fill:black;font-family:sans-serif;font-size:13;text-anchor:middle;" transform="matrix(1 0 0 1 1153.13 322)">Light</text>
  <text style="stroke:none;fill:black;font-family:sans-serif;font-size:13;text-anchor:middle;" transform="matrix(1 0 0 1 1449.84 322)">Regular</text>
  <text style="stroke:none;fill:black;font-family:sans-serif;font-size:13;text-anchor:middle;" transform="matrix(1 0 0 1 1746.56 322)">Medium</text>
  <text style="stroke:none;fill:black;font-family:sans-serif;font-size:13;text-anchor:middle;" transform="matrix(1 0 0 1 2043.27 322)">Semibold</text>
  <text style="stroke:none;fill:black;font-family:sans-serif;font-size:13;text-anchor:middle;" transform="matrix(1 0 0 1 2339.98 322)">Bold</text>
  <text style="stroke:none;fill:black;font-family:sans-serif;font-size:13;text-anchor:middle;" transform="matrix(1 0 0 1 2636.69 322)">Heavy</text>
  <text style="stroke:none;fill:black;font-family:sans-serif;font-size:13;text-anchor:middle;" transform="matrix(1 0 0 1 2933.4 322)">Black</text>
  <line style="fill:none;stroke:black;opacity:1;stroke-width:0.5;" x1="263" x2="3036" y1="1903" y2="1903"/>
  <g transform="matrix(0.2 0 0 0.2 263 1933)">
   <path d="m46.2402 4.15039c21.7773 0 39.4531-17.627 39.4531-39.4043s-17.6758-39.4043-39.4531-39.4043c-21.7285 0-39.4043 17.627-39.4043 39.4043s17.6758 39.4043 39.4043 39.4043Zm0-7.42188c-17.6758 0-31.9336-14.3066-31.9336-31.9824s14.2578-31.9824 31.9336-31.9824 31.9824 14.3066 31.9824 31.9824-14.3066 31.9824-31.9824 31.9824Zm3.61328-17.7734v-28.4668c0-2.24609-1.46484-3.75977-3.71094-3.75977-2.14844 0-3.61328 1.51367-3.61328 3.75977v28.4668c0 2.19727 1.46484 3.71094 3.61328 3.71094 2.24609 0 3.71094-1.51367 3.71094-3.71094Zm-17.8223-10.5957h28.418c2.19727 0 3.71094-1.46484 3.71094-3.61328 0-2.19727-1.51367-3.71094-3.71094-3.71094h-28.418c-2.24609 0-3.75977 1.51367-3.75977 3.71094 0 2.14844 1.51367 3.61328 3.75977 3.61328Z"/>
  </g>
  <g transform="matrix(0.2 0 0 0.2 281.506 1933)">
   <path d="m58.5449 14.5508c27.4902 0 49.8047-22.3145 49.8047-49.8047s-22.3145-49.8047-49.8047-49.8047-49.8047 22.3145-49.8047 49.8047 22.3145 49.8047 49.8047 49.8047Zm0-8.30078c-22.9492 0-41.5039-18.5547-41.5039-41.5039s18.5547-41.5039 41.5039-41.5039 41.5039 18.5547 41.5039 41.5039-18.5547 41.5039-41.5039 41.5039Zm4.05273-23.0957v-36.9141c0-2.49023-1.70898-4.19922-4.15039-4.19922-2.39258 0-4.05273 1.70898-4.05273 4.19922v36.9141c0 2.44141 1.66016 4.15039 4.05273 4.15039 2.44141 0 4.15039-1.66016 4.15039-4.15039Zm-22.5586-14.4043h36.9629c2.44141 0 4.15039-1.61133 4.15039-4.00391 0-2.44141-1.70898-4.15039-4.15039-4.15039h-36.9629c-2.49023 0-4.15039 1.70898-4.15039 4.15039 0 2.39258 1.66016 4.00391 4.15039 4.00391Z"/>
  </g>
  <g transform="matrix(0.2 0 0 0.2 304.924 1933)">
   <path d="m74.8535 28.3203c35.1074 0 63.623-28.4668 63.623-63.5742s-28.5156-63.623-63.623-63.623-63.5742 28.5156-63.5742 63.623 28.4668 63.5742 63.5742 63.5742Zm0-9.08203c-30.127 0-54.4922-24.3652-54.4922-54.4922s24.3652-54.4922 54.4922-54.4922 54.4922 24.3652 54.4922 54.4922-24.3652 54.4922-54.4922 54.4922Zm4.44336-30.3223v-48.4863c0-2.73438-1.85547-4.63867-4.54102-4.63867-2.58789 0-4.44336 1.9043-4.44336 4.63867v48.4863c0 2.68555 1.85547 4.58984 4.44336 4.58984 2.68555 0 4.54102-1.85547 4.54102-4.58984Zm-28.7109-19.7754h48.4863c2.68555 0 4.58984-1.80664 4.58984-4.39453 0-2.73438-1.85547-4.58984-4.58984-4.58984h-48.4863c-2.73438 0-4.58984 1.85547-4.58984 4.58984 0 2.58789 1.85547 4.39453 4.58984 4.39453Z"/>
  </g>
  <text style="stroke:none;fill:black;font-family:sans-serif;font-size:13;font-weight:bold;" transform="matrix(1 0 0 1 263 1953)">Design Variations</text>
  <text style="stroke:none;fill:black;font-family:sans-serif;font-size:13;" transform="matrix(1 0 0 1 263 1971)">Symbols are supported in up to nine weights and three scales.</text>
  <text style="stroke:none;fill:black;font-family:sans-serif;font-size:13;" transform="matrix(1 0 0 1 263 1989)">For optimal layout with text and other symbols, vertically align</text>
  <text style="stroke:none;fill:black;font-family:sans-serif;font-size:13;" transform="matrix(1 0 0 1 263 2007)">symbols with the adjacent text.</text>
  <line style="fill:none;stroke:#00AEEF;stroke-width:0.5;opacity:1.0;" x1="776" x2="776" y1="1919" y2="1933"/>
  <g transform="matrix(0.2 0 0 0.2 776 1933)">
   <path d="m16.5527 0.78125c2.58789 0 3.85742-0.976562 4.78516-3.71094l20.5566-57.5195h0.244141l20.6055 57.5195c0.927734 2.73438 2.19727 3.71094 4.73633 3.71094 2.58789 0 4.24805-1.5625 4.24805-4.00391 0-0.830078-0.146484-1.61133-0.537109-2.63672l-22.9004-60.9863c-1.12305-2.97852-3.125-4.49219-6.25-4.49219-3.02734 0-5.07812 1.46484-6.15234 4.44336l-22.9004 61.084c-0.390625 1.02539-0.537109 1.80664-0.537109 2.63672 0 2.44141 1.5625 3.95508 4.10156 3.95508Zm10.2051-20.9473h30.6641c2.00195 0 3.66211-1.66016 3.66211-3.66211 0-2.05078-1.66016-3.66211-3.66211-3.66211h-30.6641c-2.00195 0-3.66211 1.61133-3.66211 3.66211 0 2.00195 1.66016 3.66211 3.66211 3.66211Z"/>
  </g>
  <line style="fill:none;stroke:#00AEEF;stroke-width:0.5;opacity:1.0;" x1="792.836" x2="792.836" y1="1919" y2="1933"/>
  <text style="stroke:none;fill:black;font-family:sans-serif;font-size:13;font-weight:bold;" transform="matrix(1 0 0 1 776 1953)">Margins</text>
  <text style="stroke:none;fill:black;font-family:sans-serif;font-size:13;" transform="matrix(1 0 0 1 776 1971)">Leading and trailing margins on the left and right side of each symbol</text>
  <text style="stroke:none;fill:black;font-family:sans-serif;font-size:13;" transform="matrix(1 0 0 1 776 1989)">can be adjusted by modifying the x-location of the margin guidelines.</text>
  <text style="stroke:none;fill:black;font-family:sans-serif;font-size:13;" transform="matrix(1 0 0 1 776 2007)">Modifications are automatically applied proportionally to all</text>
  <text style="stroke:none;fill:black;font-family:sans-serif;font-size:13;" transform="matrix(1 0 0 1 776 2025)">scales and weights.</text>
  <g transform="matrix(0.2 0 0 0.2 1289 1933)">
   <path d="m14.209 13.1348 7.86133 7.86133c4.29688 4.39453 9.32617 4.10156 13.8672-1.02539l60.6934-68.2129-4.88281-4.88281-60.2539 67.6758c-1.80664 1.95312-3.4668 2.44141-5.81055 0.0976562l-5.17578-5.12695c-2.29492-2.29492-1.80664-3.95508 0.195312-5.81055l67.4805-62.1582-4.88281-4.83398-68.0664 62.5977c-4.98047 4.58984-5.32227 9.47266-1.02539 13.8184Zm44.873-97.4609c-2.05078 2.00195-2.24609 4.88281-1.07422 6.78711 1.12305 1.80664 3.4668 3.02734 6.5918 2.24609 5.85938-1.66016 12.5977-2.39258 18.8965 0.927734l-2.68555 7.12891c-1.61133 4.00391-0.732422 6.88477 1.70898 9.42383l10.2539 10.3027c2.34375 2.39258 4.54102 2.44141 7.08008 1.95312l4.44336-0.732422 2.58789 2.53906-0.195312 2.24609c-0.0976562 2.29492 0.537109 4.29688 2.7832 6.49414l3.36914 3.32031c2.29492 2.29492 5.51758 2.49023 7.8125 0.195312l12.9883-13.0371c2.29492-2.34375 2.14844-5.37109-0.195312-7.66602l-3.41797-3.41797c-2.19727-2.19727-4.05273-3.02734-6.34766-2.88086l-2.34375 0.244141-2.44141-2.44141 1.02539-4.6875c0.634766-2.73438-0.244141-4.98047-2.88086-7.61719l-11.2793-11.1816c-12.9395-12.8418-35.5957-11.0352-46.6797-0.146484Zm7.08008 2.05078c8.78906-6.39648 25.9766-5.66406 33.6914 1.95312l12.3047 12.207c1.02539 1.02539 1.2207 1.80664 0.927734 3.32031l-1.46484 6.64062 6.73828 6.68945 4.39453-0.244141c1.12305-0.0488281 1.51367 0.0488281 2.34375 0.878906l2.53906 2.49023-10.8398 10.8398-2.49023-2.49023c-0.830078-0.878906-0.976562-1.2207-0.927734-2.39258l0.292969-4.3457-6.68945-6.73828-6.83594 1.17188c-1.41602 0.292969-2.05078 0.195312-3.17383-0.878906l-8.93555-8.88672c-1.07422-1.02539-1.17188-1.70898-0.488281-3.36914l4.58984-11.4746c-6.10352-6.34766-17.041-7.51953-25.5859-4.58984-0.683594 0.244141-0.927734-0.390625-0.390625-0.78125Z"/>
  </g>
  <text style="stroke:none;fill:black;font-family:sans-serif;font-size:13;font-weight:bold;" transform="matrix(1 0 0 1 1289 1953)">Exporting</text>
  <text style="stroke:none;fill:black;font-family:sans-serif;font-size:13;" transform="matrix(1 0 0 1 1289 1971)">Symbols should be outlined when exporting to ensure the</text>
  <text style="stroke:none;fill:black;font-family:sans-serif;font-size:13;" transform="matrix(1 0 0 1 1289 1989)">design is preserved when submitting to Xcode.</text>
  <text id="template-version" style="stroke:none;fill:black;font-family:sans-serif;font-size:13;text-anchor:end;" transform="matrix(1 0 0 1 3036 1933)">Template v.7.0</text>
  <text style="stroke:none;fill:black;font-family:sans-serif;font-size:13;text-anchor:end;" transform="matrix(1 0 0 1 3036 1951)">Requires Xcode 26 or greater</text>
  <text id="descriptive-name" style="stroke:none;fill:black;font-family:sans-serif;font-size:13;text-anchor:end;" transform="matrix(1 0 0 1 3036 1969)">Generated from book.closed.fire</text>
  <text style="stroke:none;fill:black;font-family:sans-serif;font-size:13;text-anchor:end;" transform="matrix(1 0 0 1 3036 1987)">Typeset at 100.0 points</text>
  <text style="stroke:none;fill:black;font-family:sans-serif;font-size:13;" transform="matrix(1 0 0 1 263 726)">Small</text>
  <text style="stroke:none;fill:black;font-family:sans-serif;font-size:13;" transform="matrix(1 0 0 1 263 1156)">Medium</text>
  <text style="stroke:none;fill:black;font-family:sans-serif;font-size:13;" transform="matrix(1 0 0 1 263 1586)">Large</text>
 </g>
 <g id="Guides">
  <g id="H-reference" style="fill:#27AAE1;stroke:none;" transform="matrix(1 0 0 1 339 696)">
   <path d="M0.993654 0L3.63775 0L29.3281-67.1323L30.0303-67.1323L30.0303-70.459L28.1226-70.459ZM11.6885-24.4799L46.9815-24.4799L46.2315-26.7285L12.4385-26.7285ZM55.1196 0L57.7637 0L30.6382-70.459L29.4326-70.459L29.4326-67.1323Z"/>
  </g>
  <line id="Baseline-S" style="fill:none;stroke:#27AAE1;opacity:1;stroke-width:0.5;" x1="263" x2="3036" y1="696" y2="696"/>
  <line id="Capline-S" style="fill:none;stroke:#27AAE1;opacity:1;stroke-width:0.5;" x1="263" x2="3036" y1="625.541" y2="625.541"/>
  <g id="H-reference" style="fill:#27AAE1;stroke:none;" transform="matrix(1 0 0 1 339 1126)">
   <path d="M0.993654 0L3.63775 0L29.3281-67.1323L30.0303-67.1323L30.0303-70.459L28.1226-70.459ZM11.6885-24.4799L46.9815-24.4799L46.2315-26.7285L12.4385-26.7285ZM55.1196 0L57.7637 0L30.6382-70.459L29.4326-70.459L29.4326-67.1323Z"/>
  </g>
  <line id="Baseline-M" style="fill:none;stroke:#27AAE1;opacity:1;stroke-width:0.5;" x1="263" x2="3036" y1="1126" y2="1126"/>
  <line id="Capline-M" style="fill:none;stroke:#27AAE1;opacity:1;stroke-width:0.5;" x1="263" x2="3036" y1="1055.54" y2="1055.54"/>
  <g id="H-reference" style="fill:#27AAE1;stroke:none;" transform="matrix(1 0 0 1 339 1556)">
   <path d="M0.993654 0L3.63775 0L29.3281-67.1323L30.0303-67.1323L30.0303-70.459L28.1226-70.459ZM11.6885-24.4799L46.9815-24.4799L46.2315-26.7285L12.4385-26.7285ZM55.1196 0L57.7637 0L30.6382-70.459L29.4326-70.459L29.4326-67.1323Z"/>
  </g>
  <line id="Baseline-L" style="fill:none;stroke:#27AAE1;opacity:1;stroke-width:0.5;" x1="263" x2="3036" y1="1556" y2="1556"/>
  <line id="Capline-L" style="fill:none;stroke:#27AAE1;opacity:1;stroke-width:0.5;" x1="263" x2="3036" y1="1485.54" y2="1485.54"/>
  <line id="right-margin-Regular-M" style="fill:none;stroke:#00AEEF;stroke-width:0.5;opacity:1.0;" x1="1503.37" x2="1503.37" y1="1030.79" y2="1150.12"/>
  <line id="left-margin-Regular-M" style="fill:none;stroke:#00AEEF;stroke-width:0.5;opacity:1.0;" x1="1396.32" x2="1396.32" y1="1030.79" y2="1150.12"/>
  <line id="right-margin-Black-S" style="fill:none;stroke:#00AEEF;stroke-width:0.5;opacity:1.0;" x1="2981.88" x2="2981.88" y1="600.785" y2="720.121"/>
  <line id="left-margin-Black-S" style="fill:none;stroke:#00AEEF;stroke-width:0.5;opacity:1.0;" x1="2884.93" x2="2884.93" y1="600.785" y2="720.121"/>
  <line id="right-margin-Regular-S" style="fill:none;stroke:#00AEEF;stroke-width:0.5;opacity:1.0;" x1="1494.83" x2="1494.83" y1="600.785" y2="720.121"/>
  <line id="left-margin-Regular-S" style="fill:none;stroke:#00AEEF;stroke-width:0.5;opacity:1.0;" x1="1404.86" x2="1404.86" y1="600.785" y2="720.121"/>
  <line id="right-margin-Ultralight-S" style="fill:none;stroke:#00AEEF;stroke-width:0.5;opacity:1.0;" x1="602.836" x2="602.836" y1="600.785" y2="720.121"/>
  <line id="left-margin-Ultralight-S" style="fill:none;stroke:#00AEEF;stroke-width:0.5;opacity:1.0;" x1="516.586" x2="516.586" y1="600.785" y2="720.121"/>
 </g>
 <g id="Symbols">
  <g id="Black-L" transform="matrix(1 0 0 1 2863.24 1556)">
   <path class="SFSymbolsPreviewWireframe" d="M36.15 35.19L119.32 35.19C124.35 35.19 127.85 31.71 127.85 26.66C127.85 21.61 124.59 19.4 120.94 17.03C113.91 12.77 112.69 0.77 120.86-5.69C126.37-9.82 127.67-12.99 127.67-19.64L127.67-81.82C127.67-96.96 119.06-105.59 103.96-105.59L36.16-105.59C21.06-105.59 12.47-96.98 12.47-81.82L12.47 11.44C12.47 26.58 21.06 35.19 36.15 35.19ZM32.45-19.49L32.45-79.08C32.45-83.4 34.38-85.6 38.99-85.6L101.12-85.6C105.73-85.6 107.66-83.39 107.66-79.08L107.66-23.11C107.66-21.44 106.69-20.49 104.88-20.49L39.62-20.49C37.03-20.49 34.61-20.1 32.44-19.48ZM41.2 18.13C33.45 18.13 29.71 13.18 29.71 7.33C29.71 1.48 33.66-3.44 41.39-3.44L98.82-3.44C99.22-3.44 99.59-3.44 99.96-3.46C96.61 3.45 96.56 11.56 99.73 18.13L41.21 18.13ZM39.73-13.25L50.95-13.25L50.95-90.94L39.73-90.94L39.73-13.25ZM78.81-29.95C92.06-29.95 100.9-38.81 100.9-52.1C100.9-73.75 82.15-82.87 69.51-82.87C66.46-82.87 64.36-81.55 64.36-79.17C64.36-78.25 64.78-77.28 65.43-76.5C68.64-72.59 70.87-69.41 70.89-65.34C70.89-64.98 70.88-64.68 70.68-64.25L71.46-64.52C69.61-68.75 67.63-69.92 65.69-69.92C64.12-69.92 63.06-68.92 63.06-67.15C63.06-66.07 63.24-65.23 63.24-63.71C63.24-58.05 59.04-56.29 59.04-47.15C59.04-36.84 66.95-29.96 78.81-29.96ZM79.46-39.17C75.2-39.17 72.38-41.68 72.38-45.44C72.38-49.2 75.01-50.25 75.35-53.6C75.38-54.09 75.9-54.41 76.4-53.96C77.28-53.05 77.89-51.92 78.35-50.36C79.42-52.6 79.46-55.33 78.95-58.3C78.81-58.94 79.37-59.25 79.9-59.04C84.68-57.03 87.49-52.37 87.49-47.36C87.49-42.61 84.45-39.17 79.47-39.17Z"/>
  </g>
  <g id="Heavy-L" transform="matrix(1 0 0 1 2567.7 1556)">
   <path class="SFSymbolsPreviewWireframe" d="M35.04 34.49L117.88 34.49C122.34 34.49 125.51 31.34 125.51 26.86C125.51 22.64 122.69 20.41 119.46 18.43C112.17 14.35 110.83 2.76 118.94-4.08C123.73-7.81 125.38-10.99 125.38-17.53L125.38-82.14C125.38-96.75 117.28-104.89 102.72-104.89L35.1-104.89C20.55-104.89 12.47-96.78 12.47-82.14L12.47 11.85C12.47 26.39 20.55 34.49 35.04 34.49ZM29.97-15.62L29.97-80.01C29.97-84.85 32.26-87.38 37.37-87.38L100.44-87.38C105.55-87.38 107.85-84.85 107.85-80.01L107.85-20.49C107.85-18.28 106.59-17.05 104.26-17.05L37.93-17.05C34.94-17.05 32.29-16.52 29.97-15.62ZM39.02 19.22C31.57 19.22 27.88 14.61 27.88 8.69C27.88 2.77 31.87-1.78 39.28-1.78L98.51-1.78C99.05-1.78 99.54-1.8 100-1.85C96.69 5.03 96.79 12.92 100.11 19.23L39.01 19.23ZM37.3-10.31L47.71-10.31L47.71-92.02L37.3-92.02L37.3-10.31ZM78.04-29.8C91.03-29.8 99.69-38.51 99.69-51.59C99.69-72.99 81.23-82 68.67-82C65.84-82 63.93-80.81 63.93-78.66C63.93-77.83 64.31-76.95 64.92-76.22C68.02-72.45 70.38-69.1 70.4-64.93C70.4-64.39 70.36-63.93 70.02-63.31L70.88-63.57C69.22-67.6 67.04-69.05 64.99-69.05C63.57-69.05 62.63-68.13 62.63-66.54C62.63-65.57 62.81-64.6 62.81-63.2C62.81-57.63 58.66-55.58 58.66-46.64C58.66-36.54 66.4-29.81 78.04-29.81ZM78.65-38.38C74.39-38.38 71.57-40.91 71.57-44.69C71.57-48.47 74.25-49.65 74.61-52.82C74.64-53.25 75.07-53.5 75.49-53.13C76.41-52.22 77.04-51.08 77.52-49.57C78.63-51.67 78.79-54.58 78.3-57.73C78.19-58.27 78.65-58.54 79.1-58.35C83.94-56.26 86.69-51.53 86.69-46.64C86.69-41.75 83.74-38.37 78.65-38.37Z"/>
  </g>
  <g id="Bold-L" transform="matrix(1 0 0 1 2272.41 1556)">
   <path class="SFSymbolsPreviewWireframe" d="M33.64 33.66L116.2 33.66C119.94 33.66 122.68 30.95 122.68 27.17C122.68 23.76 120.4 21.75 117.7 20.24C110.05 16.24 108.56 5.07 116.61-2.27C120.6-5.58 122.59-8.8 122.59-15.18L122.59-82.58C122.59-96.49 115.1-104.04 101.25-104.04L33.78-104.04C19.94-104.04 12.47-96.54 12.47-82.58L12.47 12.47C12.47 26.18 19.95 33.66 33.64 33.66ZM26.91-10.83L26.91-81.14C26.91-86.66 29.66-89.6 35.41-89.6L99.61-89.6C105.36-89.6 108.12-86.66 108.12-81.14L108.12-17.53C108.12-14.51 106.42-12.84 103.3-12.84L35.81-12.84C32.29-12.84 29.39-12.12 26.91-10.83ZM36.38 20.67C29.2 20.67 25.53 16.4 25.53 10.35C25.53 4.3 29.58 0.13 36.71 0.13L98.13 0.13C98.9 0.13 99.57 0.08 100.21-0.04C96.85 6.9 97.17 14.63 100.82 20.67L36.37 20.67ZM34.31-6.82L43.6-6.82L43.6-93.42L34.31-93.42L34.31-6.82ZM77.03-30.25C89.69-30.25 98.14-38.77 98.14-51.59C98.14-72.68 80.03-81.55 67.56-81.55C65.01-81.55 63.35-80.53 63.35-78.66C63.35-77.94 63.69-77.18 64.24-76.51C67.23-72.9 69.72-69.33 69.75-65.07C69.75-64.31 69.66-63.66 69.16-62.82L70.09-63.06C68.64-66.85 66.2-68.6 64.07-68.6C62.85-68.6 62.04-67.78 62.04-66.44C62.04-65.6 62.22-64.47 62.22-63.2C62.22-57.67 58.13-55.34 58.13-46.64C58.13-36.8 65.66-30.26 77.03-30.26ZM77.59-38.11C73.35-38.11 70.54-40.65 70.54-44.43C70.54-48.21 73.27-49.54 73.63-52.49C73.66-52.85 73.98-53.03 74.31-52.74C75.28-51.83 75.93-50.68 76.44-49.25C77.58-51.19 77.89-54.26 77.42-57.61C77.34-58.04 77.68-58.25 78.05-58.1C82.92-55.92 85.61-51.14 85.61-46.41C85.61-41.68 82.78-38.09 77.59-38.09Z"/>
  </g>
  <g id="Semibold-L" transform="matrix(1 0 0 1 1976.67 1556)">
   <path class="SFSymbolsPreviewWireframe" d="M32.68 33.08L115.05 33.08C118.3 33.08 120.73 30.67 120.73 27.38C120.73 24.53 118.83 22.67 116.49 21.47C108.59 17.53 107 6.64 115.01-1.04C118.44-4.05 120.67-7.31 120.67-13.57L120.67-82.9C120.67-96.33 113.6-103.47 100.23-103.47L32.86-103.47C19.51-103.47 12.47-96.38 12.47-82.9L12.47 12.88C12.47 26.02 19.54 33.08 32.68 33.08ZM24.81-7.52L24.81-81.92C24.81-87.91 27.87-91.13 34.07-91.13L99.05-91.13C105.24-91.13 108.32-87.91 108.32-81.92L108.32-15.48C108.32-11.89 106.32-9.93 102.65-9.93L34.36-9.93C30.47-9.93 27.4-9.08 24.81-7.51ZM34.58 21.68C27.58 21.68 23.93 17.64 23.93 11.51C23.93 5.38 28.02 1.47 34.95 1.47L97.88 1.47C98.81 1.47 99.62 1.4 100.37 1.23C96.97 8.21 97.44 15.83 101.33 21.68L34.58 21.68ZM32.27-4.42L40.79-4.42L40.79-94.4L32.27-94.4L32.27-4.42ZM73.53-30.56C85.97-30.56 94.27-38.95 94.27-51.59C94.27-72.46 76.41-81.24 63.99-81.24C61.64-81.24 60.14-80.33 60.14-78.66C60.14-78.01 60.44-77.33 60.96-76.71C63.87-73.21 66.46-69.49 66.49-65.17C66.49-64.26 66.37-63.47 65.75-62.48L66.73-62.71C65.42-66.33 62.82-68.29 60.63-68.29C59.55-68.29 58.83-67.55 58.83-66.37C58.83-65.62 59.01-64.38 59.01-63.2C59.01-57.7 54.96-55.18 54.96-46.64C54.96-36.98 62.35-30.57 73.53-30.57ZM74.06-37.93C69.83-37.93 67.03-40.47 67.03-44.26C67.03-48.05 69.79-49.47 70.16-52.28C70.19-52.58 70.44-52.73 70.71-52.49C71.71-51.58 72.38-50.43 72.91-49.04C74.08-50.86 74.48-54.05 74.02-57.55C73.96-57.9 74.23-58.08 74.53-57.95C79.43-55.71 82.07-50.89 82.07-46.28C82.07-41.67 79.32-37.93 74.06-37.93Z"/>
  </g>
  <g id="Medium-L" transform="matrix(1 0 0 1 1680.71 1556)">
   <path class="SFSymbolsPreviewWireframe" d="M31.94 32.65L114.16 32.65C117.04 32.65 119.24 30.47 119.24 27.55C119.24 25.12 117.62 23.38 115.57 22.42C107.48 18.52 105.81 7.85 113.79-0.09C116.8-2.88 119.21-6.16 119.21-12.34L119.21-83.13C119.21-96.2 112.46-103.02 99.46-103.02L32.17-103.02C19.2-103.02 12.47-96.24 12.47-83.13L12.47 13.21C12.47 25.92 19.22 32.65 31.95 32.65ZM23.2-5.02L23.2-82.52C23.2-88.87 26.5-92.3 33.03-92.3L98.6-92.3C105.13-92.3 108.45-88.87 108.45-82.52L108.45-13.94C108.45-9.93 106.22-7.74 102.14-7.74L33.25-7.74C29.08-7.74 25.88-6.79 23.2-5.02ZM33.2 22.44C26.35 22.44 22.7 18.58 22.7 12.38C22.7 6.5 26.82 2.48 33.6 2.48L97.68 2.48C98.73 2.48 99.63 2.39 100.47 2.19C97.04 9.2 97.63 16.74 101.69 22.45L33.19 22.45ZM30.71-2.6L38.64-2.6L38.64-95.14L30.71-95.14L30.71-2.6ZM72.37-30.8C84.64-30.8 92.82-39.09 92.82-51.6C92.82-72.31 75.14-81.02 62.77-81.02C60.57-81.02 59.19-80.19 59.19-78.67C59.19-78.08 59.47-77.46 59.96-76.87C62.81-73.45 65.47-69.61 65.51-65.25C65.51-64.23 65.36-63.34 64.66-62.23L65.68-62.45C64.48-65.94 61.74-68.06 59.51-68.06C58.54-68.06 57.89-67.37 57.89-66.31C57.89-65.62 58.07-64.31 58.07-63.2C58.07-57.72 54.05-55.05 54.05-46.64C54.05-37.12 61.33-30.8 72.37-30.8ZM72.87-37.79C68.65-37.79 65.86-40.34 65.86-44.13C65.86-47.92 68.64-49.41 69.02-52.11C69.05-52.38 69.24-52.48 69.47-52.29C70.49-51.39 71.17-50.23 71.72-48.88C72.91-50.61 73.38-53.89 72.93-57.49C72.88-57.78 73.09-57.94 73.35-57.82C78.27-55.53 80.88-50.69 80.88-46.16C80.88-41.63 78.19-37.78 72.88-37.78Z"/>
  </g>
  <g id="Regular-L" transform="matrix(1 0 0 1 1384.96 1556)">
   <path class="SFSymbolsPreviewWireframe" d="M30.98 32.08L113.01 32.08C115.4 32.08 117.31 30.2 117.31 27.76C117.31 25.88 116.07 24.29 114.37 23.65C106.04 19.8 104.26 9.42 112.2 1.14C114.67-1.36 117.31-4.67 117.31-10.74L117.31-83.44C117.31-96.03 110.97-102.45 98.46-102.45L31.27-102.45C18.78-102.45 12.47-96.08 12.47-83.44L12.47 13.63C12.47 25.78 18.81 32.09 31 32.09ZM21.1-1.75L21.1-83.29C21.1-90.1 24.71-93.82 31.68-93.82L98.02-93.82C104.99-93.82 108.63-90.11 108.63-83.29L108.63-11.92C108.63-7.35 106.1-4.87 101.48-4.87L31.8-4.87C27.27-4.87 23.89-3.79 21.11-1.75ZM31.4 23.43C24.73 23.43 21.1 19.8 21.1 13.51C21.1 7.59 25.26 3.78 31.85 3.78L97.42 3.78C98.62 3.78 99.66 3.67 100.61 3.42C97.15 10.47 97.89 17.9 102.18 23.43L31.4 23.43ZM28.67-0.22L35.84-0.22L35.84-96.1L28.67-96.1L28.67-0.22ZM71.54-31.1C83.58-31.1 91.62-39.26 91.62-51.59C91.62-72.08 74.19-80.7 61.86-80.7C59.85-80.7 58.64-79.99 58.64-78.66C58.64-78.14 58.88-77.61 59.35-77.06C62.12-73.75 64.88-69.76 64.92-65.34C64.92-64.17 64.74-63.14 63.93-61.89L65-62.1C63.94-65.43 61.04-67.75 58.74-67.75C57.9-67.75 57.35-67.14 57.35-66.24C57.35-65.64 57.53-64.22 57.53-63.2C57.53-57.75 53.55-54.89 53.55-46.64C53.55-37.3 60.69-31.11 71.55-31.11ZM72-37.61C67.79-37.61 65.01-40.16 65.01-43.96C65.01-47.76 67.82-49.34 68.2-51.9C68.23-52.12 68.35-52.17 68.51-52.04C69.56-51.14 70.26-49.98 70.83-48.67C72.04-50.29 72.61-53.69 72.17-57.42C72.14-57.64 72.28-57.75 72.47-57.67C77.41-55.32 79.98-50.45 79.98-46.03C79.98-41.61 77.37-37.62 71.99-37.62Z"/>
  </g>
  <g id="Light-L" transform="matrix(1 0 0 1 1089.02 1556)">
   <path class="SFSymbolsPreviewWireframe" d="M29.85 31.78L112.49 31.78C114.37 31.78 115.76 30.38 115.76 28.47C115.76 27.07 114.88 25.88 113.62 25.35C104.81 20.63 102.8 10.01 110.96 1.18C113.47-1.49 115.76-5.03 115.76-10.85L115.76-84.1C115.76-95.95 109.71-102.08 97.88-102.08L30.32-102.08C18.54-102.08 12.47-95.98 12.47-84.1L12.47 14.74C12.47 25.78 18.58 31.79 29.85 31.79ZM19.1 1.57L19.1-83.95C19.1-91.47 23.03-95.47 30.65-95.47L97.55-95.47C105.17-95.47 109.15-91.47 109.15-83.95L109.15-11.66C109.15-5.54 105.88-2.3 99.73-2.3L30.35-2.3C25.31-2.3 21.87-0.97 19.1 1.58ZM30.18 25.15C23.07 25.15 19.1 21.29 19.1 14.6C19.1 8.26 23.41 4.32 30.44 4.32L97.25 4.32C98.95 4.32 100.43 4.13 101.76 3.71C97.63 11.41 98.77 19.53 104.24 25.15L30.18 25.15ZM26.84 1.21L32.52 1.21L32.52-97.51L26.84-97.51L26.84 1.21ZM70.39-30.7C82.21-30.7 90.1-38.73 90.1-50.89C90.1-71.12 72.92-79.7 60.48-79.7C58.72-79.7 57.73-79.08 57.73-77.96C57.73-77.51 57.94-77.07 58.37-76.55C61.17-73.2 63.95-69.08 63.98-64.83C63.98-63.53 63.69-62.36 62.81-61.13L63.76-61.34C62.68-64.57 59.61-66.75 57.52-66.75C56.86-66.75 56.43-66.26 56.43-65.56C56.43-64.95 56.61-63.54 56.61-62.5C56.61-56.7 52.63-54.06 52.63-45.94C52.63-36.78 59.64-30.71 70.39-30.71ZM70.76-37.21C66.69-37.21 64.01-39.67 64.01-43.33C64.01-46.99 66.7-48.54 67.08-51C67.11-51.2 67.23-51.26 67.39-51.13C68.41-50.28 69.13-49.13 69.7-47.88C70.87-49.44 71.42-52.65 70.93-56.34C70.9-56.54 71.03-56.66 71.22-56.57C75.96-54.27 78.47-49.6 78.47-45.33C78.47-41.06 75.95-37.21 70.76-37.21Z"/>
  </g>
  <g id="Thin-L" transform="matrix(1 0 0 1 793.342 1556)">
   <path class="SFSymbolsPreviewWireframe" d="M28.35 31.37L111.8 31.37C112.99 31.37 113.7 30.6 113.7 29.39C113.7 28.62 113.3 27.96 112.62 27.58C103.18 21.7 100.87 10.78 109.3 1.21C111.86-1.69 113.7-5.53 113.7-11.03L113.7-85.01C113.7-95.87 108.02-101.63 97.1-101.63L29.06-101.63C18.21-101.63 12.47-95.88 12.47-85.01L12.47 16.18C12.47 25.76 18.28 31.36 28.34 31.36ZM16.43 5.97L16.43-84.83C16.43-93.28 20.79-97.66 29.27-97.66L96.9-97.66C105.38-97.66 109.81-93.28 109.81-84.83L109.81-11.33C109.81-3.17 105.55 1.08 97.38 1.08L28.41 1.08C22.69 1.08 19.17 2.74 16.43 5.97ZM28.55 27.42C20.86 27.42 16.43 23.26 16.43 16.04C16.43 8.82 20.95 5.03 28.55 5.03L97 5.03C99.35 5.03 101.41 4.74 103.25 4.09C98.24 12.65 99.91 21.67 106.95 27.42L28.54 27.42ZM24.4 3.1L28.11 3.1L28.11-99.38L24.4-99.38L24.4 3.1ZM69.06-31.1C80.58-31.1 88.27-38.95 88.27-50.89C88.27-70.78 71.42-79.3 58.84-79.3C57.4-79.3 56.71-78.81 56.71-77.96C56.71-77.6 56.87-77.3 57.27-76.81C60.12-73.4 62.92-69.12 62.92-65.09C62.92-63.61 62.49-62.26 61.52-61.04L62.31-61.25C61.2-64.34 57.91-66.34 56.1-66.34C55.67-66.34 55.41-66.02 55.41-65.58C55.41-64.96 55.59-63.55 55.59-62.49C55.59-56.21 51.61-53.87 51.61-45.93C51.61-37 58.45-31.1 69.07-31.1ZM69.3-37.62C65.4-37.62 62.87-39.96 62.87-43.45C62.87-47.11 65.4-48.43 65.79-50.77C65.82-50.95 65.94-51.01 66.09-50.89C67.08-50.1 67.81-48.97 68.4-47.8C69.51-49.27 70.05-52.25 69.48-55.87C69.45-56.05 69.57-56.17 69.75-56.08C74.23-53.84 76.65-49.45 76.65-45.37C76.65-41.29 74.25-37.63 69.3-37.63Z"/>
  </g>
  <g id="Ultralight-L" transform="matrix(1 0 0 1 497.171 1556)">
   <path class="SFSymbolsPreviewWireframe" d="M27.55 31.17L111.41 31.17C112.25 31.17 112.61 30.72 112.61 29.88C112.61 29.43 112.46 29.04 112.08 28.75C102.32 22.27 99.85 11.2 108.43 1.26C111.01-1.76 112.62-5.75 112.62-11.08L112.62-85.44C112.62-95.8 107.14-101.36 96.69-101.36L28.41-101.36C18.04-101.36 12.47-95.79 12.47-85.44L12.47 16.95C12.47 25.78 18.13 31.17 27.56 31.17ZM15.04 8.21L15.04-85.29C15.04-94.22 19.62-98.79 28.54-98.79L96.54-98.79C105.46-98.79 110.12-94.22 110.12-85.29L110.12-11.17C110.12-1.96 105.36 2.8 96.16 2.8L27.39 2.8C21.32 2.8 17.77 4.63 15.04 8.21ZM27.69 28.59C19.71 28.59 15.04 24.27 15.04 16.78C15.04 9.29 19.66 5.39 27.56 5.39L96.85 5.39C99.54 5.39 101.89 5.05 104 4.29C98.54 13.29 100.48 22.78 108.32 28.59L27.69 28.59ZM23.13 4.07L25.84 4.07L25.84-100.34L23.13-100.34L23.13 4.07ZM68.28-30.65C79.65-30.65 87.23-38.41 87.23-50.24C87.23-69.96 70.55-78.45 57.89-78.45C56.62-78.45 56.08-78.03 56.08-77.31C56.08-77 56.22-76.76 56.6-76.29C59.47-72.86 62.28-68.49 62.28-64.57C62.28-63 61.78-61.55 60.76-60.35L61.47-60.56C60.34-63.58 56.94-65.49 55.28-65.49C54.97-65.49 54.79-65.25 54.79-64.95C54.79-64.33 54.97-62.91 54.97-61.85C54.97-55.33 50.99-53.14 50.99-45.29C50.99-36.48 57.75-30.66 68.29-30.66ZM68.46-37.18C64.65-37.18 62.2-39.46 62.2-42.85C62.2-46.42 64.65-47.71 65.04-49.99C65.07-50.16 65.19-50.22 65.33-50.11C66.3-49.35 67.04-48.24 67.63-47.1C68.71-48.53 69.24-51.38 68.64-54.97C68.61-55.14 68.73-55.26 68.9-55.17C73.25-52.97 75.63-48.71 75.63-44.73C75.63-40.75 73.29-37.18 68.46-37.18Z"/>
  </g>
  <g id="Black-M" transform="matrix(1 0 0 1 2875.35 1126)">
   <path class="SFSymbolsPreviewWireframe" d="M31.61 19.89L96.41 19.89C100.73 19.89 103.65 16.98 103.65 12.65C103.65 8.32 100.79 6.45 97.66 4.28C92.38 0.7 91.49-8.97 97.92-13.73C102.81-17.3 103.48-19.77 103.48-24.99L103.48-71.15C103.48-83.24 96.42-90.31 84.34-90.31L31.61-90.31C19.53-90.31 12.47-83.25 12.47-71.15L12.47 0.72C12.47 12.82 19.53 19.88 31.61 19.88ZM29.81-25.91L29.81-68.5C29.81-71.49 31.04-72.96 34.27-72.96L81.67-72.96C84.91-72.96 86.13-71.49 86.13-68.5L86.13-28.06C86.13-27.02 85.53-26.43 84.37-26.43L34.77-26.43C33.05-26.43 31.35-26.22 29.8-25.91ZM36.44 5.41C30.12 5.41 27.12 1.26 27.12-3.27C27.12-7.8 30.17-11.95 36.49-11.95L79.6-11.95C79.85-11.95 80.1-11.95 80.35-11.95C77.63-6.48 77.52 0.09 80.01 5.41L36.44 5.41ZM35.42-20.53L44.61-20.53L44.61-77.65L35.42-77.65L35.42-20.53ZM65.32-30.21C75.79-30.21 82.76-37.19 82.76-47.64C82.76-64.59 68.02-71.75 58.14-71.75C55.62-71.75 53.86-70.62 53.86-68.61C53.86-67.84 54.21-67.01 54.75-66.37C57.34-63.21 58.96-60.89 58.96-57.84C58.96-57.7 58.96-57.58 58.91-57.41L59.43-57.63C57.83-61.06 56.45-61.71 55.06-61.71C53.67-61.71 52.84-60.88 52.84-59.38C52.84-58.44 52.98-57.91 52.98-56.63C52.98-52.12 49.68-51.03 49.68-43.8C49.68-35.65 55.94-30.21 65.31-30.21ZM65.84-37.9C62.56-37.9 60.39-39.81 60.39-42.69C60.39-45.57 62.37-46.26 62.62-49C62.64-49.43 63.13-49.73 63.58-49.32C64.22-48.63 64.68-47.75 65.01-46.51C65.81-48.36 65.72-50.3 65.3-52.43C65.17-53.01 65.68-53.29 66.16-53.1C69.79-51.62 72-48.1 72-44.13C72-40.43 69.58-37.9 65.84-37.9Z"/>
  </g>
  <g id="Heavy-M" transform="matrix(1 0 0 1 2579.7 1126)">
   <path class="SFSymbolsPreviewWireframe" d="M30.63 19.23L95.05 19.23C98.86 19.23 101.51 16.6 101.51 12.77C101.51 8.94 99.05 7.28 96.29 5.49C90.79 2.17 89.82-7.08 96.16-12.16C100.35-15.32 101.38-17.78 101.38-22.91L101.38-71.39C101.38-83.03 94.78-89.64 83.18-89.64L30.66-89.64C19.06-89.64 12.47-83.04 12.47-71.39L12.47 1.03C12.47 12.64 19.05 19.24 30.63 19.24ZM27.57-22.44L27.57-69.35C27.57-72.79 29.12-74.55 32.78-74.55L81.05-74.55C84.71-74.55 86.26-72.79 86.26-69.35L86.26-25.53C86.26-24.11 85.44-23.3 83.91-23.3L33.24-23.3C31.17-23.3 29.26-22.97 27.56-22.44ZM34.42 6.31C28.43 6.31 25.52 2.51 25.52-2.05C25.52-6.61 28.59-10.38 34.56-10.38L79.32-10.38C79.67-10.38 79.99-10.38 80.3-10.41C77.68-5.03 77.68 1.26 80.2 6.32L34.41 6.32ZM33.22-17.79L41.75-17.79L41.75-78.57L33.22-78.57L33.22-17.79ZM65.12-31.74C75.35-31.74 82.16-38.58 82.16-48.85C82.16-65.58 67.68-72.63 57.89-72.63C55.56-72.63 53.97-71.63 53.97-69.82C53.97-69.12 54.29-68.39 54.79-67.79C57.27-64.77 59.01-62.29 59.02-59.13C59.02-58.82 59-58.57 58.83-58.21L59.44-58.42C58.03-61.67 56.46-62.6 54.96-62.6C53.77-62.6 52.97-61.84 52.97-60.5C52.97-59.67 53.11-59.01 53.11-57.84C53.11-53.45 49.86-52.06 49.86-45.01C49.86-37.05 55.96-31.75 65.12-31.75ZM65.62-38.81C62.32-38.81 60.15-40.75 60.15-43.66C60.15-46.57 62.19-47.4 62.45-49.97C62.47-50.34 62.87-50.58 63.25-50.24C63.93-49.54 64.41-48.66 64.77-47.46C65.6-49.18 65.64-51.3 65.25-53.62C65.15-54.11 65.56-54.34 65.96-54.18C69.66-52.61 71.83-49.01 71.83-45.14C71.83-41.27 69.49-38.8 65.62-38.8Z"/>
  </g>
  <g id="Bold-M" transform="matrix(1 0 0 1 2284.19 1126)">
   <path class="SFSymbolsPreviewWireframe" d="M29.54 18.49L93.54 18.49C96.77 18.49 99.12 16.17 99.12 12.91C99.12 9.9 97.1 8.21 94.76 6.85C89.03 3.82 87.96-4.97 94.19-10.4C97.58-13.1 99.03-15.56 99.03-20.59L99.03-71.67C99.03-82.8 92.96-88.91 81.88-88.91L29.59-88.91C18.51-88.91 12.47-82.83 12.47-71.67L12.47 1.36C12.47 12.43 18.52 18.5 29.54 18.5ZM25.07-18.55L25.07-70.29C25.07-74.22 26.99-76.31 31.12-76.31L80.36-76.31C84.49-76.31 86.42-74.22 86.42-70.29L86.42-22.68C86.42-20.83 85.36-19.79 83.42-19.79L31.54-19.79C29.07-19.79 26.93-19.33 25.07-18.54ZM32.15 7.32C26.53 7.32 23.72 3.9 23.72-0.68C23.72-5.26 26.81-8.63 32.4-8.63L79-8.63C79.45-8.63 79.85-8.65 80.24-8.7C77.73-3.42 77.85 2.55 80.42 7.32L32.15 7.32ZM30.75-14.73L38.55-14.73L38.55-79.62L30.75-79.62L30.75-14.73ZM63.46-31.01C73.42-31.01 80.07-37.7 80.07-47.75C80.07-64.24 65.88-71.17 56.19-71.17C54.08-71.17 52.67-70.3 52.67-68.72C52.67-68.11 52.95-67.47 53.41-66.92C55.76-64.07 57.64-61.4 57.66-58.11C57.66-57.62 57.62-57.21 57.3-56.64L58.01-56.83C56.81-59.87 55.04-61.13 53.4-61.13C52.36-61.13 51.67-60.44 51.67-59.29C51.67-58.59 51.81-57.77 51.81-56.74C51.81-52.48 48.62-50.76 48.62-43.91C48.62-36.17 54.55-31.01 63.47-31.01ZM63.92-37.37C60.61-37.37 58.42-39.34 58.42-42.29C58.42-45.24 60.53-46.21 60.81-48.59C60.83-48.89 61.12-49.07 61.42-48.81C62.15-48.1 62.65-47.21 63.04-46.07C63.92-47.64 64.1-49.98 63.74-52.51C63.66-52.89 63.98-53.07 64.29-52.94C68.08-51.28 70.19-47.57 70.19-43.83C70.19-40.09 67.94-37.37 63.94-37.37Z"/>
  </g>
  <g id="Semibold-M" transform="matrix(1 0 0 1 1988.3 1126)">
   <path class="SFSymbolsPreviewWireframe" d="M28.8 17.98L92.51 17.98C95.35 17.98 97.48 15.87 97.48 13C97.48 10.46 95.77 8.85 93.71 7.78C87.81 4.95 86.68-3.52 92.84-9.2C95.69-11.59 97.42-14.03 97.42-19L97.42-71.87C97.42-82.66 91.71-88.41 80.99-88.41L28.86-88.41C18.15-88.41 12.47-82.69 12.47-71.87L12.47 1.58C12.47 12.28 18.16 17.98 28.79 17.98ZM23.35-15.87L23.35-70.94C23.35-75.22 25.52-77.53 29.98-77.53L79.89-77.53C84.35-77.53 86.53-75.21 86.53-70.94L86.53-20.73C86.53-18.58 85.29-17.39 83.08-17.39L30.37-17.39C27.63-17.39 25.33-16.85 23.35-15.87ZM30.6 8.02C25.24 8.02 22.5 4.87 22.5 0.26C22.5-4.35 25.61-7.42 30.93-7.42L78.8-7.42C79.32-7.42 79.78-7.45 80.21-7.51C77.78-2.3 77.98 3.45 80.57 8.02L30.59 8.02ZM29.07-12.61L36.36-12.61L36.36-80.33L29.07-80.33L29.07-12.61ZM61.06-31.26C70.84-31.26 77.36-37.84 77.36-47.75C77.36-64.07 63.36-70.92 53.75-70.92C51.79-70.92 50.51-70.15 50.51-68.72C50.51-68.17 50.77-67.59 51.19-67.08C53.46-64.34 55.43-61.55 55.46-58.17C55.46-57.56 55.4-57.03 54.99-56.31L55.77-56.49C54.71-59.38 52.8-60.86 51.07-60.86C50.14-60.86 49.51-60.22 49.51-59.19C49.51-58.58 49.65-57.66 49.65-56.72C49.65-52.55 46.5-50.6 46.5-43.89C46.5-36.3 52.31-31.24 61.07-31.24ZM61.5-37.14C58.18-37.14 55.98-39.13 55.98-42.1C55.98-45.07 58.14-46.15 58.42-48.4C58.44-48.66 58.66-48.78 58.9-48.58C59.67-47.86 60.18-46.97 60.58-45.86C61.49-47.33 61.77-49.81 61.42-52.48C61.36-52.78 61.6-52.94 61.86-52.83C65.7-51.1 67.78-47.33 67.78-43.67C67.78-40.01 65.59-37.13 61.49-37.13Z"/>
  </g>
  <g id="Medium-M" transform="matrix(1 0 0 1 1692.21 1126)">
   <path class="SFSymbolsPreviewWireframe" d="M28.23 17.6L91.72 17.6C94.26 17.6 96.23 15.66 96.23 13.08C96.23 10.89 94.76 9.35 92.91 8.5C86.89 5.82 85.71-2.41 91.81-8.27C94.24-10.42 96.2-12.86 96.2-17.77L96.2-72C96.2-82.52 90.77-88.01 80.32-88.01L28.31-88.01C17.87-88.01 12.47-82.57 12.47-72L12.47 1.77C12.47 12.18 17.88 17.61 28.22 17.61ZM22.04-13.83L22.04-71.43C22.04-75.97 24.4-78.46 29.11-78.46L79.53-78.46C84.24-78.46 86.61-75.97 86.61-71.43L86.61-19.24C86.61-16.87 85.25-15.55 82.81-15.55L29.47-15.55C26.53-15.55 24.1-14.94 22.04-13.83ZM29.41 8.55C24.24 8.55 21.55 5.6 21.55 0.98C21.55-3.39 24.67-6.5 29.79-6.5L78.63-6.5C79.21-6.5 79.71-6.53 80.18-6.61C77.8-1.45 78.07 4.13 80.69 8.56L29.42 8.56ZM27.78-11.01L34.69-11.01L34.69-80.87L27.78-80.87L27.78-11.01ZM59.53-31.75C69.17-31.75 75.6-38.25 75.6-48.05C75.6-64.24 61.75-71.02 52.2-71.02C50.36-71.02 49.17-70.32 49.17-69.02C49.17-68.52 49.41-67.98 49.81-67.51C52.02-64.86 54.06-61.96 54.09-58.53C54.09-57.82 54.02-57.22 53.53-56.39L54.36-56.56C53.41-59.34 51.39-60.99 49.59-60.99C48.74-60.99 48.16-60.39 48.16-59.46C48.16-58.91 48.3-57.92 48.3-57.04C48.3-52.94 45.18-50.82 45.18-44.21C45.18-36.73 50.9-31.76 59.53-31.76ZM59.96-37.26C56.64-37.26 54.42-39.27 54.42-42.26C54.42-45.25 56.62-46.41 56.91-48.56C56.93-48.78 57.1-48.87 57.29-48.71C58.09-47.99 58.61-47.09 59.03-46.01C59.96-47.4 60.31-49.99 59.99-52.77C59.95-53.02 60.13-53.14 60.34-53.05C64.22-51.27 66.28-47.44 66.28-43.85C66.28-40.26 64.14-37.25 59.97-37.25Z"/>
  </g>
  <g id="Regular-M" transform="matrix(1 0 0 1 1396.32 1126)">
   <path class="SFSymbolsPreviewWireframe" d="M27.47 17.09L90.67 17.09C92.81 17.09 94.59 15.36 94.59 13.16C94.59 11.43 93.42 9.97 91.86 9.41C85.68 6.93 84.43-0.98 90.46-7.08C92.35-8.92 94.59-11.35 94.59-16.2L94.59-72.21C94.59-82.39 89.51-87.53 79.43-87.53L27.58-87.53C17.5-87.53 12.47-82.44 12.47-72.21L12.47 1.98C12.47 12.02 17.51 17.09 27.48 17.09ZM20.31-11.18L20.31-72.08C20.31-76.96 22.92-79.67 27.95-79.67L79.03-79.67C84.06-79.67 86.68-76.96 86.68-72.08L86.68-17.31C86.68-14.65 85.15-13.17 82.43-13.17L28.27-13.17C25.06-13.17 22.47-12.47 20.3-11.19ZM27.85 9.24C22.93 9.24 20.31 6.56 20.31 1.91C20.31-2.43 23.45-5.31 28.3-5.31L78.39-5.31C79.04-5.31 79.59-5.35 80.11-5.45C77.81-0.36 78.16 5.01 80.8 9.24L27.83 9.24ZM26.08-8.92L32.48-8.92L32.48-81.58L26.08-81.58L26.08-8.92ZM58.59-32.12C68.05-32.12 74.37-38.52 74.37-48.17C74.37-64.19 60.72-70.89 51.24-70.89C49.55-70.89 48.48-70.28 48.48-69.14C48.48-68.7 48.69-68.23 49.06-67.78C51.18-65.24 53.32-62.22 53.36-58.7C53.36-57.87 53.28-57.15 52.69-56.18L53.58-56.34C52.77-58.98 50.62-60.85 48.72-60.85C47.97-60.85 47.47-60.3 47.47-59.5C47.47-59.04 47.61-57.94 47.61-57.16C47.61-53.14 44.52-50.8 44.52-44.33C44.52-36.99 50.12-32.12 58.59-32.12ZM59-37.16C55.67-37.16 53.44-39.19 53.44-42.2C53.44-45.21 55.68-46.47 55.98-48.5C56-48.68 56.09-48.72 56.23-48.61C57.06-47.88 57.59-46.98 58.03-45.93C58.99-47.22 59.44-49.96 59.13-52.88C59.11-53.06 59.22-53.15 59.37-53.08C63.31-51.23 65.33-47.34 65.33-43.83C65.33-40.32 63.25-37.15 58.99-37.15Z"/>
  </g>
  <g id="Light-M" transform="matrix(1 0 0 1 1100.3 1126)">
   <path class="SFSymbolsPreviewWireframe" d="M26.46 16.82L90.21 16.82C91.89 16.82 93.2 15.52 93.2 13.8C93.2 12.5 92.35 11.4 91.18 10.94C84.57 7.67 83.12-0.45 89.34-7.04C91.26-9.03 93.2-11.67 93.2-16.3L93.2-72.8C93.2-82.31 88.38-87.19 78.91-87.19L26.73-87.19C17.29-87.19 12.47-82.34 12.47-72.8L12.47 2.98C12.47 12.03 17.31 16.82 26.45 16.82ZM18.52-8.2L18.52-72.67C18.52-78.18 21.42-81.15 27.03-81.15L78.61-81.15C84.22-81.15 87.15-78.18 87.15-72.67L87.15-17.07C87.15-13.02 84.95-10.86 80.87-10.86L26.98-10.86C23.3-10.86 20.67-9.94 18.51-8.2ZM26.76 10.78C21.45 10.78 18.52 7.89 18.52 2.89C18.52-1.83 21.79-4.83 27.04-4.83L78.25-4.83C79.34-4.83 80.29-4.94 81.16-5.19C78.26 0.49 78.97 6.47 82.67 10.78L26.76 10.78ZM24.44-7.64L29.51-7.64L29.51-82.85L24.44-82.85L24.44-7.64ZM58.13-32.39C67.39-32.39 73.57-38.67 73.57-48.17C73.57-63.96 60.15-70.62 50.56-70.62C49.09-70.62 48.22-70.1 48.22-69.14C48.22-68.76 48.4-68.38 48.75-67.96C50.9-65.38 53.05-62.25 53.08-58.88C53.08-57.93 52.9-57.09 52.25-56.13L53.04-56.29C52.21-58.84 49.91-60.59 48.2-60.59C47.61-60.59 47.22-60.16 47.22-59.52C47.22-59.05 47.36-57.95 47.36-57.16C47.36-52.82 44.27-50.68 44.27-44.33C44.27-37.15 49.76-32.39 58.14-32.39ZM58.45-37.43C55.24-37.43 53.11-39.38 53.11-42.27C53.11-45.16 55.25-46.38 55.54-48.33C55.56-48.49 55.65-48.54 55.78-48.43C56.59-47.75 57.13-46.85 57.58-45.86C58.5-47.09 58.94-49.67 58.58-52.55C58.56-52.71 58.66-52.8 58.81-52.74C62.57-50.94 64.54-47.23 64.54-43.85C64.54-40.47 62.55-37.43 58.44-37.43Z"/>
  </g>
  <g id="Thin-M" transform="matrix(1 0 0 1 804.517 1126)">
   <path class="SFSymbolsPreviewWireframe" d="M25.11 16.46L89.58 16.46C90.65 16.46 91.35 15.72 91.35 14.64C91.35 13.9 90.93 13.28 90.28 12.96C83.1 8.65 81.38 0.26 87.85-6.99C89.82-9.19 91.34-12.1 91.34-16.43L91.34-73.59C91.34-82.22 86.86-86.76 78.2-86.76L25.59-86.76C16.98-86.76 12.47-82.23 12.47-73.59L12.47 4.3C12.47 12.04 17.04 16.47 25.09 16.47ZM16.13-4.27L16.13-73.47C16.13-79.82 19.41-83.13 25.8-83.13L78.04-83.13C84.42-83.13 87.76-79.82 87.76-73.47L87.76-16.79C87.76-10.91 84.68-7.84 78.78-7.84L25.25-7.84C20.96-7.84 18.26-6.63 16.13-4.27ZM25.29 12.82C19.46 12.82 16.13 9.66 16.13 4.18C16.13-1.3 19.59-4.19 25.35-4.19L78.03-4.19C79.71-4.19 81.18-4.39 82.5-4.84C78.81 1.61 79.99 8.4 85.1 12.83L25.3 12.83ZM22.25-5.94L25.55-5.94L25.55-84.52L22.25-84.52L22.25-5.94ZM58.01-32.75C67-32.75 73-38.87 73-48.17C73-63.65 59.88-70.27 50.16-70.27C48.98-70.27 48.38-69.87 48.38-69.14C48.38-68.84 48.52-68.58 48.83-68.19C51.03-65.56 53.19-62.28 53.2-59.11C53.2-58 52.9-57 52.17-56.05L52.82-56.21C51.96-58.63 49.46-60.22 48-60.22C47.62-60.22 47.38-59.93 47.38-59.54C47.38-59.06 47.52-57.97 47.52-57.15C47.52-52.39 44.43-50.51 44.43-44.32C44.43-37.35 49.77-32.74 58.02-32.74ZM58.23-37.8C55.17-37.8 53.18-39.64 53.18-42.38C53.18-45.25 55.18-46.29 55.47-48.13C55.49-48.28 55.58-48.32 55.7-48.23C56.47-47.6 57.04-46.73 57.49-45.8C58.36-46.96 58.78-49.32 58.36-52.14C58.34-52.29 58.43-52.38 58.57-52.31C62.1-50.56 63.99-47.1 63.99-43.89C63.99-40.68 62.1-37.81 58.22-37.81Z"/>
  </g>
  <g id="Ultralight-M" transform="matrix(1 0 0 1 508.291 1126)">
   <path class="SFSymbolsPreviewWireframe" d="M24.39 16.27L89.24 16.27C90 16.27 90.38 15.82 90.38 15.06C90.38 14.61 90.19 14.23 89.8 13.98C82.33 9.14 80.47 0.61 87.07-6.98C89.06-9.28 90.38-12.33 90.38-16.51L90.38-74C90.38-82.18 86.07-86.55 77.84-86.55L25.01-86.55C16.83-86.55 12.47-82.18 12.47-74L12.47 4.96C12.47 12.02 16.9 16.27 24.4 16.27ZM14.88-2.25L14.88-73.87C14.88-80.65 18.36-84.13 25.14-84.13L77.71-84.13C84.49-84.13 88.03-80.65 88.03-73.87L88.03-16.63C88.03-9.81 84.5-6.28 77.68-6.28L24.34-6.28C19.74-6.28 17-4.91 14.88-2.25ZM24.52 13.86C18.42 13.86 14.88 10.56 14.88 4.84C14.88-0.88 18.43-3.87 24.46-3.87L77.89-3.87C79.87-3.87 81.61-4.12 83.16-4.67C79.06 2.17 80.49 9.38 86.32 13.87L24.52 13.87ZM21.1-5.07L23.5-5.07L23.5-85.38L21.1-85.38L21.1-5.07ZM57.52-33.35C66.37-33.35 72.28-39.39 72.28-48.59C72.28-63.92 59.31-70.5 49.52-70.5C48.49-70.5 48.02-70.15 48.02-69.56C48.02-69.31 48.14-69.1 48.43-68.73C50.65-66.08 52.82-62.72 52.82-59.65C52.82-58.46 52.46-57.37 51.68-56.43L52.25-56.59C51.38-58.95 48.78-60.46 47.45-60.46C47.17-60.46 47.01-60.25 47.01-59.97C47.01-59.49 47.15-58.39 47.15-57.57C47.15-52.59 44.06-50.85 44.06-44.74C44.06-37.88 49.32-33.35 57.51-33.35ZM57.68-38.41C54.7-38.41 52.78-40.2 52.78-42.85C52.78-45.64 54.7-46.65 55-48.44C55.02-48.58 55.11-48.62 55.23-48.53C55.99-47.93 56.56-47.07 57.01-46.17C57.86-47.29 58.27-49.54 57.81-52.33C57.79-52.47 57.88-52.56 58.02-52.49C61.43-50.77 63.29-47.43 63.29-44.32C63.29-41.21 61.46-38.41 57.68-38.41Z"/>
  </g>
  <g id="Black-S" transform="matrix(1 0 0 1 2884.93 696)">
   <path class="SFSymbolsPreviewWireframe" d="M27.7 8.15L78.63 8.15C82.15 8.15 84.49 5.81 84.49 2.29C84.49-1.23 82.15-2.74 79.61-4.55C75.51-7.48 74.82-15.19 79.9-18.86C83.95-21.79 84.34-23.74 84.34-27.84L84.34-63.34C84.34-72.91 78.68-78.57 69.11-78.57L27.7-78.57C18.13-78.57 12.47-72.91 12.47-63.34L12.47-7.09C12.47 2.48 18.13 8.14 27.7 8.14ZM26.63-28.81L26.63-61.09C26.63-63.34 27.51-64.41 29.95-64.41L66.86-64.41C69.3-64.41 70.18-63.34 70.18-61.09L70.18-30.38C70.18-29.6 69.74-29.16 68.86-29.16L30.33-29.16C29.06-29.16 27.79-29.01 26.62-28.82ZM31.8-3.56C26.72-3.56 24.33-6.93 24.33-10.49C24.33-14.05 26.72-17.42 31.8-17.42L65.74-17.42C63.54-13.07 63.45-7.8 65.45-3.55L31.81-3.55ZM31.02-24.46L38.34-24.46L38.34-68.26L31.02-68.26L31.02-24.46ZM54.33-30.24C62.59-30.24 68.09-35.74 68.09-43.99C68.09-57.32 56.48-62.97 48.7-62.97C46.67-62.97 45.26-62.06 45.26-60.43C45.26-59.8 45.55-59.14 45.98-58.62C48.04-56.09 49.28-54.32 49.28-51.97L49.28-51.77L49.66-51.95C48.35-54.69 47.31-55.1 46.27-55.1C45.23-55.1 44.48-54.44 44.48-53.22C44.48-52.45 44.59-52.07 44.59-51.03C44.59-47.45 41.99-46.69 41.99-40.98C41.99-34.55 46.94-30.24 54.34-30.24ZM54.74-36.46C52.18-36.46 50.49-37.95 50.49-40.19C50.49-42.43 52.01-42.93 52.21-45.12C52.23-45.48 52.64-45.73 53.02-45.39C53.5-44.85 53.86-44.17 54.11-43.19C54.72-44.68 54.61-46.13 54.27-47.74C54.16-48.22 54.59-48.46 54.99-48.3C57.8-47.17 59.54-44.45 59.54-41.31C59.54-38.41 57.62-36.47 54.74-36.47Z"/>
  </g>
  <g id="Heavy-S" transform="matrix(1 0 0 1 2589.04 696)">
   <path class="SFSymbolsPreviewWireframe" d="M26.99 7.62L77.53 7.62C80.67 7.62 82.84 5.46 82.84 2.31C82.84-0.84 80.8-2.21 78.52-3.71C74.29-6.32 73.56-13.65 78.54-17.52C81.98-20.08 82.73-22 82.73-26.05L82.73-63.47C82.73-72.74 77.43-78.05 68.19-78.05L27-78.05C17.75-78.05 12.47-72.75 12.47-63.47L12.47-6.95C12.47 2.33 17.75 7.63 27 7.63ZM24.93-26.22L24.93-61.73C24.93-64.28 26.05-65.57 28.78-65.57L66.37-65.57C69.1-65.57 70.22-64.28 70.22-61.73L70.22-28.23C70.22-27.3 69.68-26.77 68.66-26.77L29.18-26.77C27.67-26.77 26.23-26.55 24.93-26.22ZM30.2-2.99C25.46-2.99 23.18-6.04 23.18-9.58C23.18-13.12 25.57-16.16 30.3-16.16L65.55-16.16C63.51-11.96 63.46-7.01 65.36-3L30.2-3ZM29.34-22.28L36.27-22.28L36.27-68.89L29.34-68.89L29.34-22.28ZM53.38-30.82C61.46-30.82 66.85-36.22 66.85-44.32C66.85-57.5 55.43-63.05 47.74-63.05C45.85-63.05 44.55-62.23 44.55-60.75C44.55-60.18 44.81-59.58 45.21-59.1C47.17-56.7 48.51-54.8 48.52-52.34C48.52-52.15 48.52-51.99 48.41-51.75L48.88-51.92C47.73-54.51 46.56-55.19 45.39-55.19C44.41-55.19 43.76-54.57 43.76-53.47C43.76-52.8 43.87-52.31 43.87-51.37C43.87-47.93 41.31-46.89 41.31-41.32C41.31-35.03 46.14-30.83 53.37-30.83ZM53.78-36.5C51.19-36.5 49.48-38.02 49.48-40.3C49.48-42.58 51.07-43.2 51.28-45.26C51.3-45.57 51.63-45.77 51.94-45.49C52.47-44.94 52.84-44.25 53.11-43.3C53.76-44.68 53.76-46.32 53.45-48.09C53.36-48.49 53.71-48.69 54.04-48.55C56.94-47.34 58.65-44.52 58.65-41.46C58.65-38.57 56.79-36.5 53.78-36.5Z"/>
  </g>
  <g id="Bold-S" transform="matrix(1 0 0 1 2293.25 696)">
   <path class="SFSymbolsPreviewWireframe" d="M26.21 7.03L76.31 7.03C79.02 7.03 81 5.08 81 2.34C81-0.2 79.29-1.62 77.31-2.76C72.94-5.01 72.16-11.92 77.02-16.02C79.78-18.17 80.93-20.05 80.93-24.05L80.93-63.63C80.93-72.57 76.05-77.47 67.16-77.47L26.22-77.47C17.33-77.47 12.47-72.59 12.47-63.63L12.47-6.82C12.47 2.14 17.33 7.02 26.22 7.02ZM23.06-23.32L23.06-62.46C23.06-65.34 24.45-66.88 27.5-66.88L65.85-66.88C68.9-66.88 70.29-65.34 70.29-62.46L70.29-25.84C70.29-24.74 69.63-24.11 68.46-24.11L27.91-24.11C26.13-24.11 24.49-23.82 23.05-23.33ZM28.43-2.34C24.06-2.34 21.91-5.03 21.91-8.54C21.91-12.05 24.3-14.72 28.65-14.72L65.37-14.72C63.51-10.69 63.51-6.1 65.3-2.34L28.43-2.34ZM27.48-19.85L33.97-19.85L33.97-69.61L27.48-69.61L27.48-19.85ZM53.33-31.26C61.22-31.26 66.48-36.55 66.48-44.49C66.48-57.49 55.27-62.95 47.69-62.95C45.96-62.95 44.79-62.23 44.79-60.92C44.79-60.42 45.02-59.88 45.39-59.44C47.24-57.19 48.7-55.15 48.71-52.56C48.71-52.23 48.71-51.95 48.49-51.53L49.05-51.68C48.08-54.11 46.76-55.08 45.45-55.08C44.58-55.08 44-54.51 44-53.54C44-52.98 44.11-52.36 44.11-51.53C44.11-48.24 41.6-46.9 41.6-41.48C41.6-35.35 46.3-31.26 53.34-31.26ZM53.72-36.34C51.1-36.34 49.36-37.9 49.36-40.23C49.36-42.56 51.03-43.31 51.24-45.22C51.26-45.47 51.5-45.61 51.74-45.4C52.31-44.84 52.7-44.14 52.99-43.22C53.68-44.48 53.81-46.32 53.53-48.28C53.47-48.59 53.73-48.75 53.99-48.64C56.98-47.34 58.66-44.41 58.66-41.44C58.66-38.47 56.87-36.34 53.71-36.34Z"/>
  </g>
  <g id="Semibold-S" transform="matrix(1 0 0 1 1997.17 696)">
   <path class="SFSymbolsPreviewWireframe" d="M25.67 6.62L75.47 6.62C77.89 6.62 79.73 4.81 79.73 2.36C79.73 0.18 78.25-1.2 76.48-2.11C72.01-4.11 71.2-10.72 75.97-14.98C78.26-16.84 79.68-18.7 79.68-22.67L79.68-63.73C79.68-72.43 75.08-77.07 66.44-77.07L25.67-77.07C17.03-77.07 12.47-72.47 12.47-63.73L12.47-6.71C12.47 2.03 17.04 6.63 25.67 6.63ZM21.76-21.32L21.76-62.95C21.76-66.06 23.34-67.77 26.61-67.77L65.49-67.77C68.76-67.77 70.34-66.06 70.34-62.95L70.34-24.18C70.34-22.97 69.6-22.26 68.32-22.26L27.03-22.26C25.06-22.26 23.29-21.91 21.75-21.32ZM27.21-1.9C23.1-1.9 21.04-4.34 21.04-7.83C21.04-11.32 23.43-13.73 27.51-13.73L65.24-13.73C63.51-9.82 63.54-5.48 65.24-1.89L27.2-1.89ZM26.19-18.17L32.38-18.17L32.38-70.09L26.19-70.09L26.19-18.17ZM51.36-31.45C59.11-31.45 64.28-36.66 64.28-44.49C64.28-57.37 53.22-62.76 45.71-62.76C44.09-62.76 43-62.11 43-60.92C43-60.46 43.21-59.97 43.56-59.56C45.34-57.41 46.87-55.27 46.89-52.59C46.89-52.16 46.88-51.8 46.58-51.26L47.21-51.4C46.37-53.71 44.94-54.88 43.53-54.88C42.74-54.88 42.2-54.34 42.2-53.46C42.2-52.97 42.31-52.26 42.31-51.52C42.31-48.34 39.83-46.78 39.83-41.47C39.83-35.45 44.43-31.44 51.35-31.44ZM51.74-36.11C49.1-36.11 47.35-37.7 47.35-40.06C47.35-42.42 49.07-43.27 49.29-45.07C49.31-45.28 49.49-45.39 49.68-45.22C50.29-44.65 50.68-43.94 50.99-43.05C51.71-44.23 51.92-46.21 51.66-48.3C51.61-48.55 51.81-48.67 52.02-48.59C55.08-47.23 56.73-44.22 56.73-41.31C56.73-38.4 54.98-36.12 51.73-36.12Z"/>
  </g>
  <g id="Medium-S" transform="matrix(1 0 0 1 1700.94 696)">
   <path class="SFSymbolsPreviewWireframe" d="M25.26 6.31L74.83 6.31C77.02 6.31 78.77 4.61 78.77 2.37C78.77 0.46 77.47-0.9 75.85-1.62C71.31-3.43 70.46-9.82 75.18-14.2C77.11-15.85 78.74-17.68 78.74-21.62L78.74-63.8C78.74-72.33 74.36-76.75 65.91-76.75L25.26-76.75C16.81-76.75 12.47-72.37 12.47-63.8L12.47-6.63C12.47 1.94 16.81 6.32 25.26 6.32ZM20.78-19.8L20.78-63.33C20.78-66.62 22.5-68.45 25.94-68.45L65.22-68.45C68.66-68.45 70.38-66.62 70.38-63.33L70.38-22.93C70.38-21.63 69.58-20.87 68.22-20.87L26.37-20.87C24.26-20.87 22.39-20.48 20.78-19.81ZM26.28-1.56C22.36-1.56 20.37-3.81 20.37-7.29C20.37-10.57 22.76-12.98 26.64-12.98L65.14-12.98C63.5-9.15 63.57-5 65.21-1.56L26.28-1.56ZM25.21-16.9L31.17-16.9L31.17-70.47L25.21-70.47L25.21-16.9ZM51.29-31.59C58.93-31.59 64.04-36.74 64.04-44.48C64.04-57.27 53.09-62.61 45.63-62.61C44.09-62.61 43.07-62.02 43.07-60.92C43.07-60.5 43.27-60.04 43.6-59.65C45.32-57.58 46.91-55.36 46.94-52.62C46.94-52.12 46.93-51.7 46.57-51.06L47.25-51.2C46.5-53.43 44.99-54.75 43.51-54.75C42.77-54.75 42.28-54.23 42.28-53.43C42.28-53 42.39-52.22 42.39-51.54C42.39-48.44 39.94-46.72 39.94-41.49C39.94-35.56 44.47-31.61 51.29-31.61ZM51.66-35.94C49.01-35.94 47.24-37.55 47.24-39.93C47.24-42.31 49-43.23 49.23-44.96C49.25-45.14 49.38-45.22 49.54-45.08C50.17-44.5 50.57-43.79 50.9-42.92C51.64-44.04 51.92-46.12 51.68-48.31C51.65-48.51 51.8-48.62 51.97-48.54C55.08-47.13 56.71-44.07 56.71-41.2C56.71-38.33 55-35.93 51.67-35.93Z"/>
  </g>
  <g id="Regular-S" transform="matrix(1 0 0 1 1404.86 696)">
   <path class="SFSymbolsPreviewWireframe" d="M24.72 5.91L73.99 5.91C75.89 5.91 77.51 4.35 77.51 2.39C77.51 0.83 76.44-0.49 75.02-0.98C70.38-2.54 69.5-8.65 74.14-13.19C75.6-14.56 77.51-16.36 77.51-20.27L77.51-63.92C77.51-72.22 73.41-76.37 65.21-76.37L24.73-76.37C16.53-76.37 12.47-72.27 12.47-63.92L12.47-6.55C12.47 1.8 16.52 5.9 24.73 5.9ZM19.5-17.82L19.5-63.82C19.5-67.34 21.4-69.34 25.07-69.34L64.86-69.34C68.52-69.34 70.43-67.34 70.43-63.82L70.43-21.29C70.43-19.87 69.55-19.04 68.09-19.04L25.51-19.04C23.22-19.04 21.21-18.6 19.5-17.82ZM25.06-1.12C21.4-1.12 19.49-3.12 19.49-6.59C19.49-9.81 21.88-12.01 25.5-12.01L65-12.01C63.49-8.3 63.58-4.39 65.15-1.12L25.06-1.12ZM23.94-15.23L29.6-15.23L29.6-70.94L23.94-70.94L23.94-15.23ZM49.67-31.78C57.18-31.78 62.2-36.85 62.2-44.49C62.2-57.16 51.39-62.43 44.01-62.43C42.58-62.43 41.64-61.91 41.64-60.92C41.64-60.54 41.82-60.13 42.12-59.77C43.77-57.8 45.44-55.49 45.47-52.66C45.47-52.07 45.45-51.57 45.02-50.8L45.77-50.93C45.14-53.04 43.53-54.57 41.95-54.57C41.29-54.57 40.84-54.09 40.84-53.37C40.84-53.01 40.95-52.15 40.95-51.54C40.95-48.55 38.53-46.61 38.53-41.49C38.53-35.67 42.97-31.79 49.66-31.79ZM50.03-35.72C47.36-35.72 45.57-37.35 45.57-39.77C45.57-42.19 47.38-43.19 47.61-44.82C47.63-44.96 47.7-45 47.81-44.91C48.47-44.32 48.89-43.6 49.23-42.76C50-43.8 50.36-46.02 50.14-48.33C50.12-48.47 50.21-48.55 50.34-48.49C53.51-47.02 55.13-43.88 55.13-41.07C55.13-38.26 53.46-35.71 50.04-35.71Z"/>
  </g>
  <g id="Light-S" transform="matrix(1 0 0 1 1108.77 696)">
   <path class="SFSymbolsPreviewWireframe" d="M23.81 5.67L73.56 5.67C75.06 5.67 76.26 4.49 76.26 2.96C76.26 1.78 75.47 0.78 74.41 0.38C69.39-1.88 68.33-8.16 73.14-13.14C74.64-14.64 76.27-16.63 76.27-20.34L76.27-64.43C76.27-72.14 72.4-76.06 64.74-76.06L23.97-76.06C16.33-76.06 12.47-72.17 12.47-64.43L12.47-5.65C12.47 1.82 16.34 5.68 23.82 5.68ZM17.89-15.19L17.89-64.35C17.89-68.43 20.05-70.65 24.23-70.65L64.46-70.65C68.64-70.65 70.81-68.42 70.81-64.35L70.81-21.09C70.81-18.45 69.34-17.01 66.66-17.01L24.32-17.01C21.62-17.01 19.57-16.37 17.88-15.18ZM24.08 0.24C20.07 0.24 17.89-1.94 17.89-5.73C17.89-9.29 20.4-11.59 24.37-11.59L64.07-11.59C64.76-11.59 65.35-11.65 65.9-11.79C63.86-7.56 64.27-3.11 66.77 0.23L24.08 0.23ZM22.47-14.1L26.95-14.1L26.95-72.07L22.47-72.07L22.47-14.1ZM48.46-31.74C55.79-31.74 60.69-36.71 60.69-44.21C60.69-56.68 50.08-61.91 42.61-61.91C41.37-61.91 40.62-61.47 40.62-60.64C40.62-60.32 40.77-59.98 41.05-59.65C42.73-57.65 44.4-55.23 44.43-52.54C44.43-51.84 44.33-51.23 43.84-50.47L44.5-50.6C43.86-52.63 42.11-54.05 40.7-54.05C40.18-54.05 39.83-53.67 39.83-53.1C39.83-52.74 39.94-51.88 39.94-51.26C39.94-47.98 37.52-46.23 37.52-41.21C37.52-35.52 41.86-31.75 48.47-31.75ZM48.74-35.69C46.18-35.69 44.47-37.25 44.47-39.56C44.47-41.87 46.19-42.84 46.42-44.4C46.44-44.53 46.51-44.57 46.61-44.48C47.25-43.93 47.67-43.22 48.02-42.42C48.76-43.41 49.1-45.49 48.85-47.76C48.83-47.89 48.92-47.96 49.04-47.91C52.06-46.48 53.62-43.5 53.62-40.81C53.62-38.12 52.03-35.68 48.75-35.68Z"/>
  </g>
  <g id="Thin-S" transform="matrix(1 0 0 1 812.877 696)">
   <path class="SFSymbolsPreviewWireframe" d="M22.61 5.35L73 5.35C73.96 5.35 74.62 4.67 74.62 3.7C74.62 3.02 74.21 2.44 73.61 2.16C68.09-1.02 66.79-7.55 71.82-13.11C73.36-14.79 74.63-17.02 74.63-20.47L74.63-65.14C74.63-72.07 71.06-75.69 64.12-75.69L22.97-75.69C16.07-75.69 12.47-72.08 12.47-65.14L12.47-4.5C12.47 1.81 16.1 5.35 22.62 5.35ZM15.77-11.71L15.77-65.05C15.77-69.87 18.27-72.4 23.13-72.4L63.94-72.4C68.8-72.4 71.33-69.87 71.33-65.05L71.33-20.83C71.33-16.57 69.08-14.33 64.8-14.33L22.78-14.33C19.54-14.33 17.43-13.43 15.75-11.7ZM22.78 2.04C18.31 2.04 15.77-0.38 15.77-4.59C15.77-8.8 18.44-11.03 22.87-11.03L63.88-11.03C65.09-11.03 66.14-11.17 67.09-11.49C64.35-6.58 65.18-1.41 68.92 2.04L22.79 2.04ZM20.53-12.6L23.45-12.6L23.45-73.55L20.53-73.55L20.53-12.6ZM47.75-31.7C54.85-31.7 59.58-36.53 59.58-43.85C59.58-56.04 49.24-61.23 41.65-61.23C40.67-61.23 40.15-60.89 40.15-60.28C40.15-60.03 40.26-59.8 40.52-59.49C42.23-57.44 43.93-54.9 43.94-52.38C43.94-51.54 43.73-50.78 43.17-50.04L43.7-50.17C43.03-52.09 41.11-53.37 39.92-53.37C39.58-53.37 39.36-53.12 39.36-52.76C39.36-52.4 39.47-51.53 39.47-50.89C39.47-47.24 37.05-45.72 37.05-40.84C37.05-35.34 41.26-31.7 47.75-31.7ZM47.94-35.65C45.51-35.65 43.93-37.11 43.93-39.29C43.93-41.57 45.52-42.39 45.75-43.85C45.77-43.97 45.84-44 45.93-43.93C46.54-43.43 46.98-42.74 47.33-42C48.02-42.92 48.36-44.81 48.04-47.03C48.02-47.15 48.1-47.22 48.21-47.17C51.02-45.79 52.52-43.03 52.52-40.49C52.52-37.95 51.02-35.66 47.93-35.66Z"/>
  </g>
  <g id="Ultralight-S" transform="matrix(1 0 0 1 516.586 696)">
   <path class="SFSymbolsPreviewWireframe" d="M22.01 5.18L72.73 5.18C73.41 5.18 73.79 4.75 73.79 4.07C73.79 3.64 73.58 3.28 73.21 3.06C67.44-0.59 66.01-7.24 71.15-13.1C72.71-14.88 73.79-17.23 73.79-20.54L73.79-65.51C73.79-72.04 70.37-75.51 63.8-75.51L22.46-75.51C15.94-75.51 12.47-72.04 12.47-65.51L12.47-3.91C12.47 1.81 15.98 5.18 22 5.18ZM14.7-9.92L14.7-65.41C14.7-70.61 17.38-73.29 22.58-73.29L63.69-73.29C68.9-73.29 71.62-70.61 71.62-65.41L71.62-20.7C71.62-15.61 68.97-12.96 63.87-12.96L22.02-12.96C18.5-12.96 16.36-11.93 14.7-9.92ZM22.13 2.96C17.42 2.96 14.7 0.41 14.7-4.01C14.7-8.43 17.46-10.75 22.11-10.75L63.78-10.75C65.25-10.75 66.54-10.93 67.69-11.34C64.59-6.09 65.64-0.54 70.02 2.95L22.12 2.95ZM19.55-11.83L21.67-11.83L21.67-74.31L19.55-74.31L19.55-11.83ZM46.15-31.34C53.13-31.34 57.78-36.1 57.78-43.33C57.78-55.38 47.57-60.55 39.92-60.55C39.07-60.55 38.67-60.26 38.67-59.76C38.67-59.55 38.77-59.37 39-59.08C40.73-57.01 42.43-54.4 42.43-51.97C42.43-51.06 42.16-50.23 41.57-49.49L42.04-49.62C41.36-51.48 39.35-52.69 38.27-52.69C38.02-52.69 37.88-52.51 37.88-52.26C37.88-51.88 37.99-51.02 37.99-50.38C37.99-46.54 35.57-45.13 35.57-40.33C35.57-34.92 39.71-31.35 46.15-31.35ZM46.3-35.3C43.95-35.3 42.42-36.71 42.42-38.82C42.42-41.03 43.95-41.83 44.18-43.24C44.2-43.35 44.27-43.39 44.36-43.31C44.96-42.84 45.4-42.15 45.76-41.44C46.43-42.33 46.76-44.12 46.41-46.31C46.39-46.42 46.47-46.49 46.57-46.44C49.28-45.09 50.74-42.43 50.74-39.97C50.74-37.51 49.29-35.29 46.3-35.29Z"/>
  </g>
 </g>
</svg>
